# Blender v2.83.5 OBJ File: ''
# www.blender.org
mtllib tree.mtl
o Cone
v 0.000000 4.827991 -1.000000
v 0.195090 4.827991 -0.980785
v 0.382683 4.827991 -0.923880
v 0.555570 4.827991 -0.831470
v 0.707107 4.827991 -0.707107
v 0.831470 4.827991 -0.555570
v 0.923880 4.827991 -0.382683
v 0.980785 4.827991 -0.195090
v 1.000000 4.827991 -0.000000
v 0.980785 4.827991 0.195090
v 0.923880 4.827991 0.382683
v 0.831470 4.827991 0.555570
v 0.707107 4.827991 0.707107
v 0.555570 4.827991 0.831470
v 0.382683 4.827991 0.923880
v 0.195090 4.827991 0.980785
v -0.000000 4.827991 1.000000
v -0.195091 4.827991 0.980785
v -0.382684 4.827991 0.923879
v -0.555571 4.827991 0.831469
v -0.707107 4.827991 0.707106
v -0.831470 4.827991 0.555570
v -0.923880 4.827991 0.382683
v 0.000000 6.827991 0.000000
v -0.980785 4.827991 0.195089
v -1.000000 4.827991 -0.000001
v -0.980785 4.827991 -0.195091
v -0.923879 4.827991 -0.382684
v -0.831469 4.827991 -0.555571
v -0.707106 4.827991 -0.707108
v -0.555569 4.827991 -0.831470
v -0.382682 4.827991 -0.923880
v -0.195089 4.827991 -0.980786
v 0.000000 -1.000000 -1.000000
v 0.000000 5.111025 -0.643791
v 0.195090 -1.000000 -0.980785
v 0.125597 5.111025 -0.631421
v 0.382683 -1.000000 -0.923880
v 0.246368 5.111025 -0.594786
v 0.555570 -1.000000 -0.831470
v 0.357671 5.111025 -0.535293
v 0.707107 -1.000000 -0.707107
v 0.455229 5.111025 -0.455229
v 0.831470 -1.000000 -0.555570
v 0.535293 5.111025 -0.357671
v 0.923880 -1.000000 -0.382683
v 0.594786 5.111025 -0.246368
v 0.980785 -1.000000 -0.195090
v 0.631421 5.111025 -0.125598
v 1.000000 -1.000000 -0.000000
v 0.643791 5.111025 -0.000000
v 0.980785 -1.000000 0.195090
v 0.631421 5.111025 0.125597
v 0.923880 -1.000000 0.382683
v 0.594786 5.111025 0.246368
v 0.831470 -1.000000 0.555570
v 0.535293 5.111025 0.357671
v 0.707107 -1.000000 0.707107
v 0.455229 5.111025 0.455229
v 0.555570 -1.000000 0.831470
v 0.357671 5.111025 0.535293
v 0.382683 -1.000000 0.923880
v 0.246368 5.111025 0.594786
v 0.195090 -1.000000 0.980785
v 0.125597 5.111025 0.631421
v -0.000000 -1.000000 1.000000
v -0.000000 5.111025 0.643791
v -0.195091 -1.000000 0.980785
v -0.125598 5.111025 0.631421
v -0.382684 -1.000000 0.923879
v -0.246368 5.111025 0.594785
v -0.555571 -1.000000 0.831469
v -0.357672 5.111025 0.535293
v -0.707107 -1.000000 0.707106
v -0.455229 5.111025 0.455229
v -0.831470 -1.000000 0.555570
v -0.535293 5.111025 0.357671
v -0.923880 -1.000000 0.382683
v -0.594786 5.111025 0.246368
v -0.980785 -1.000000 0.195089
v -0.631421 5.111025 0.125597
v -1.000000 -1.000000 -0.000001
v -0.643791 5.111025 -0.000001
v -0.980785 -1.000000 -0.195091
v -0.631421 5.111025 -0.125598
v -0.923879 -1.000000 -0.382684
v -0.594785 5.111025 -0.246369
v -0.831469 -1.000000 -0.555571
v -0.535292 5.111025 -0.357672
v -0.707106 -1.000000 -0.707108
v -0.455229 5.111025 -0.455230
v -0.555569 -1.000000 -0.831470
v -0.357670 5.111025 -0.535293
v -0.382682 -1.000000 -0.923880
v -0.246367 5.111025 -0.594786
v -0.195089 -1.000000 -0.980786
v -0.125596 5.111025 -0.631421
v 0.000000 3.353878 -1.432703
v 0.279507 3.353878 -1.405174
v 0.548272 3.353878 -1.323645
v 0.795967 3.353878 -1.191249
v 1.013074 3.353878 -1.013074
v 1.191249 3.353878 -0.795967
v 1.323645 3.353878 -0.548272
v 1.405174 3.353878 -0.279507
v 1.432703 3.353878 -0.000000
v 1.405174 3.353878 0.279506
v 1.323645 3.353878 0.548271
v 1.191249 3.353878 0.795967
v 1.013074 3.353878 1.013074
v 0.795967 3.353878 1.191249
v 0.548271 3.353878 1.323645
v 0.279506 3.353878 1.405174
v -0.000000 3.353878 1.432703
v -0.279507 3.353878 1.405174
v -0.548272 3.353878 1.323645
v -0.795968 3.353878 1.191249
v -1.013075 3.353878 1.013073
v -1.191250 3.353878 0.795966
v -1.323645 3.353878 0.548271
v 0.000000 6.219284 0.000000
v -1.405174 3.353878 0.279505
v -1.432703 3.353878 -0.000001
v -1.405174 3.353878 -0.279508
v -1.323644 3.353878 -0.548273
v -1.191248 3.353878 -0.795969
v -1.013073 3.353878 -1.013075
v -0.795966 3.353878 -1.191250
v -0.548270 3.353878 -1.323646
v -0.279504 3.353878 -1.405174
v 0.000000 0.703977 -2.258449
v 0.440602 0.703977 -2.215054
v 0.864271 0.703977 -2.086535
v 1.254727 0.703977 -1.877832
v 1.596965 0.703977 -1.596965
v 1.877832 0.703977 -1.254727
v 2.086535 0.703977 -0.864271
v 2.215054 0.703977 -0.440602
v 2.258449 0.703977 -0.000000
v 2.215054 0.703977 0.440601
v 2.086535 0.703977 0.864271
v 1.877832 0.703977 1.254727
v 1.596965 0.703977 1.596965
v 1.254727 0.703977 1.877832
v 0.864271 0.703977 2.086535
v 0.440601 0.703977 2.215054
v -0.000001 0.703977 2.258449
v -0.440603 0.703977 2.215054
v -0.864272 0.703977 2.086535
v -1.254728 0.703977 1.877831
v -1.596966 0.703977 1.596964
v -1.877833 0.703977 1.254726
v -2.086536 0.703977 0.864269
v 0.000000 5.220875 0.000000
v -2.215054 0.703977 0.440600
v -2.258449 0.703977 -0.000002
v -2.215053 0.703977 -0.440604
v -2.086534 0.703977 -0.864273
v -1.877831 0.703977 -1.254730
v -1.596963 0.703977 -1.596967
v -1.254725 0.703977 -1.877834
v -0.864268 0.703977 -2.086536
v -0.440598 0.703977 -2.215055
vt 0.250000 0.490000
vt 0.250000 0.250000
vt 0.296822 0.485388
vt 0.341844 0.471731
vt 0.383337 0.449553
vt 0.419706 0.419706
vt 0.449553 0.383337
vt 0.471731 0.341844
vt 0.485388 0.296822
vt 0.490000 0.250000
vt 0.485388 0.203178
vt 0.471731 0.158156
vt 0.449553 0.116663
vt 0.419706 0.080294
vt 0.383337 0.050447
vt 0.341844 0.028269
vt 0.296822 0.014612
vt 0.250000 0.010000
vt 0.203178 0.014612
vt 0.158156 0.028269
vt 0.116663 0.050447
vt 0.080294 0.080294
vt 0.050447 0.116663
vt 0.028269 0.158156
vt 0.014611 0.203179
vt 0.010000 0.250000
vt 0.014612 0.296822
vt 0.028269 0.341844
vt 0.050447 0.383337
vt 0.080295 0.419706
vt 0.116663 0.449553
vt 0.158156 0.471731
vt 0.203179 0.485389
vt 0.985388 0.296822
vt 0.796822 0.014612
vt 0.514611 0.203179
vt 1.000000 1.000000
vt 0.968750 0.500000
vt 1.000000 0.500000
vt 0.968750 1.000000
vt 0.937500 0.500000
vt 0.937500 1.000000
vt 0.906250 0.500000
vt 0.906250 1.000000
vt 0.875000 0.500000
vt 0.875000 1.000000
vt 0.843750 0.500000
vt 0.843750 1.000000
vt 0.812500 0.500000
vt 0.812500 1.000000
vt 0.781250 0.500000
vt 0.781250 1.000000
vt 0.750000 0.500000
vt 0.750000 1.000000
vt 0.718750 0.500000
vt 0.718750 1.000000
vt 0.687500 0.500000
vt 0.687500 1.000000
vt 0.656250 0.500000
vt 0.656250 1.000000
vt 0.625000 0.500000
vt 0.625000 1.000000
vt 0.593750 0.500000
vt 0.593750 1.000000
vt 0.562500 0.500000
vt 0.562500 1.000000
vt 0.531250 0.500000
vt 0.531250 1.000000
vt 0.500000 0.500000
vt 0.500000 1.000000
vt 0.468750 0.500000
vt 0.468750 1.000000
vt 0.437500 0.500000
vt 0.437500 1.000000
vt 0.406250 0.500000
vt 0.406250 1.000000
vt 0.375000 0.500000
vt 0.375000 1.000000
vt 0.343750 0.500000
vt 0.343750 1.000000
vt 0.312500 0.500000
vt 0.312500 1.000000
vt 0.281250 0.500000
vt 0.281250 1.000000
vt 0.250000 0.500000
vt 0.218750 1.000000
vt 0.218750 0.500000
vt 0.187500 0.500000
vt 0.187500 1.000000
vt 0.156250 0.500000
vt 0.156250 1.000000
vt 0.125000 0.500000
vt 0.125000 1.000000
vt 0.093750 0.500000
vt 0.093750 1.000000
vt 0.062500 0.500000
vt 0.158156 0.028269
vt 0.471731 0.158156
vt 0.341844 0.471731
vt 0.062500 1.000000
vt 0.031250 0.500000
vt 0.031250 1.000000
vt 0.000000 0.500000
vt 0.985388 0.296822
vt 0.796822 0.014612
vt 0.514611 0.203179
vt 0.250000 0.490000
vt 0.250000 0.250000
vt 0.296822 0.485388
vt 0.341844 0.471731
vt 0.383337 0.449553
vt 0.419706 0.419706
vt 0.449553 0.383337
vt 0.471731 0.341844
vt 0.485388 0.296822
vt 0.490000 0.250000
vt 0.485388 0.203178
vt 0.471731 0.158156
vt 0.449553 0.116663
vt 0.419706 0.080294
vt 0.383337 0.050447
vt 0.341844 0.028269
vt 0.296822 0.014612
vt 0.250000 0.010000
vt 0.203178 0.014612
vt 0.158156 0.028269
vt 0.116663 0.050447
vt 0.080294 0.080294
vt 0.050447 0.116663
vt 0.028269 0.158156
vt 0.014611 0.203179
vt 0.010000 0.250000
vt 0.014612 0.296822
vt 0.028269 0.341844
vt 0.050447 0.383337
vt 0.080295 0.419706
vt 0.116663 0.449553
vt 0.158156 0.471731
vt 0.203179 0.485389
vt 0.796822 0.014612
vt 0.514611 0.203179
vt 0.703179 0.485389
vt 0.250000 0.490000
vt 0.250000 0.250000
vt 0.296822 0.485388
vt 0.341844 0.471731
vt 0.383337 0.449553
vt 0.419706 0.419706
vt 0.449553 0.383337
vt 0.471731 0.341844
vt 0.485388 0.296822
vt 0.490000 0.250000
vt 0.485388 0.203178
vt 0.471731 0.158156
vt 0.449553 0.116663
vt 0.419706 0.080294
vt 0.383337 0.050447
vt 0.341844 0.028269
vt 0.296822 0.014612
vt 0.250000 0.010000
vt 0.203178 0.014612
vt 0.158156 0.028269
vt 0.116663 0.050447
vt 0.080294 0.080294
vt 0.050447 0.116663
vt 0.028269 0.158156
vt 0.014611 0.203179
vt 0.010000 0.250000
vt 0.014612 0.296822
vt 0.028269 0.341844
vt 0.050447 0.383337
vt 0.080295 0.419706
vt 0.116663 0.449553
vt 0.158156 0.471731
vt 0.203179 0.485389
vt 0.796822 0.014612
vt 0.514611 0.203179
vt 0.703179 0.485389
vt 0.703179 0.485389
vt 0.750000 0.490000
vt 0.796822 0.485388
vt 0.841844 0.471731
vt 0.883337 0.449553
vt 0.919706 0.419706
vt 0.949553 0.383337
vt 0.971731 0.341844
vt 0.990000 0.250000
vt 0.985388 0.203178
vt 0.971731 0.158156
vt 0.949553 0.116663
vt 0.919706 0.080294
vt 0.883337 0.050447
vt 0.841844 0.028269
vt 0.750000 0.010000
vt 0.703178 0.014612
vt 0.658156 0.028269
vt 0.616663 0.050447
vt 0.580294 0.080294
vt 0.550447 0.116663
vt 0.528269 0.158156
vt 0.510000 0.250000
vt 0.514612 0.296822
vt 0.528269 0.341844
vt 0.550447 0.383337
vt 0.580295 0.419706
vt 0.616663 0.449553
vt 0.658156 0.471731
vt 0.250000 1.000000
vt 0.296822 0.485388
vt 0.250000 0.490000
vt 0.203179 0.485389
vt 0.158156 0.471731
vt 0.116663 0.449553
vt 0.080295 0.419706
vt 0.050447 0.383337
vt 0.028269 0.341844
vt 0.014612 0.296822
vt 0.010000 0.250000
vt 0.014611 0.203179
vt 0.028269 0.158156
vt 0.050447 0.116663
vt 0.080294 0.080294
vt 0.116663 0.050447
vt 0.203178 0.014612
vt 0.250000 0.010000
vt 0.296822 0.014612
vt 0.341844 0.028269
vt 0.383337 0.050447
vt 0.419706 0.080294
vt 0.449553 0.116663
vt 0.485388 0.203178
vt 0.471731 0.341844
vt 0.490000 0.250000
vt 0.485388 0.296822
vt 0.449553 0.383337
vt 0.419706 0.419706
vt 0.383337 0.449553
vt 0.000000 1.000000
vt 0.703179 0.485389
vt 0.750000 0.490000
vt 0.796822 0.485388
vt 0.841844 0.471731
vt 0.883337 0.449553
vt 0.919706 0.419706
vt 0.949553 0.383337
vt 0.971731 0.341844
vt 0.990000 0.250000
vt 0.985388 0.203178
vt 0.971731 0.158156
vt 0.949553 0.116663
vt 0.919706 0.080294
vt 0.883337 0.050447
vt 0.841844 0.028269
vt 0.750000 0.010000
vt 0.703178 0.014612
vt 0.658156 0.028269
vt 0.616663 0.050447
vt 0.580294 0.080294
vt 0.550447 0.116663
vt 0.528269 0.158156
vt 0.510000 0.250000
vt 0.514612 0.296822
vt 0.528269 0.341844
vt 0.550447 0.383337
vt 0.580295 0.419706
vt 0.616663 0.449553
vt 0.658156 0.471731
vt 0.750000 0.490000
vt 0.796822 0.485388
vt 0.841844 0.471731
vt 0.883337 0.449553
vt 0.919706 0.419706
vt 0.949553 0.383337
vt 0.971731 0.341844
vt 0.985388 0.296822
vt 0.990000 0.250000
vt 0.985388 0.203178
vt 0.971731 0.158156
vt 0.949553 0.116663
vt 0.919706 0.080294
vt 0.883337 0.050447
vt 0.841844 0.028269
vt 0.750000 0.010000
vt 0.703178 0.014612
vt 0.658156 0.028269
vt 0.616663 0.050447
vt 0.580294 0.080294
vt 0.550447 0.116663
vt 0.528269 0.158156
vt 0.510000 0.250000
vt 0.514612 0.296822
vt 0.528269 0.341844
vt 0.550447 0.383337
vt 0.580295 0.419706
vt 0.616663 0.449553
vt 0.658156 0.471731
vt 0.750000 0.490000
vt 0.796822 0.485388
vt 0.841844 0.471731
vt 0.883337 0.449553
vt 0.919706 0.419706
vt 0.949553 0.383337
vt 0.971731 0.341844
vt 0.985388 0.296822
vt 0.990000 0.250000
vt 0.985388 0.203178
vt 0.971731 0.158156
vt 0.949553 0.116663
vt 0.919706 0.080294
vt 0.883337 0.050447
vt 0.841844 0.028269
vt 0.750000 0.010000
vt 0.703178 0.014612
vt 0.658156 0.028269
vt 0.616663 0.050447
vt 0.580294 0.080294
vt 0.550447 0.116663
vt 0.528269 0.158156
vt 0.510000 0.250000
vt 0.514612 0.296822
vt 0.528269 0.341844
vt 0.550447 0.383337
vt 0.580295 0.419706
vt 0.616663 0.449553
vt 0.658156 0.471731
vn 0.0000 -0.5033 -0.8641
vn 0.0000 1.0000 0.0000
vn 0.1686 -0.5033 -0.8475
vn 0.3307 -0.5033 -0.7983
vn 0.4801 -0.5033 -0.7185
vn 0.6110 -0.5033 -0.6110
vn 0.7185 -0.5033 -0.4801
vn 0.7983 -0.5033 -0.3307
vn 0.8475 -0.5033 -0.1686
vn 0.8641 -0.5033 0.0000
vn 0.8475 -0.5033 0.1686
vn 0.7983 -0.5033 0.3307
vn 0.7185 -0.5033 0.4801
vn 0.6110 -0.5033 0.6110
vn 0.4801 -0.5033 0.7185
vn 0.3307 -0.5033 0.7983
vn 0.1686 -0.5033 0.8475
vn 0.0000 -0.5033 0.8641
vn -0.1686 -0.5033 0.8475
vn -0.3307 -0.5033 0.7983
vn -0.4801 -0.5033 0.7185
vn -0.6110 -0.5033 0.6110
vn -0.7185 -0.5033 0.4801
vn -0.7983 -0.5033 0.3307
vn -0.8475 -0.5033 0.1686
vn -0.8641 -0.5033 0.0000
vn -0.8475 -0.5033 -0.1686
vn -0.7983 -0.5033 -0.3307
vn -0.7185 -0.5033 -0.4801
vn -0.6110 -0.5033 -0.6110
vn -0.4801 -0.5033 -0.7185
vn -0.3307 -0.5033 -0.7983
vn -0.1686 -0.5033 -0.8475
vn 0.0000 0.7065 -0.7076
vn 0.1458 -0.6643 -0.7331
vn 0.0000 -0.6643 -0.7474
vn 0.1380 0.7066 -0.6940
vn 0.2860 -0.6643 -0.6905
vn 0.2708 0.7066 -0.6538
vn 0.4152 -0.6643 -0.6215
vn 0.3931 0.7066 -0.5883
vn 0.5285 -0.6643 -0.5285
vn 0.5004 0.7066 -0.5004
vn 0.6215 -0.6643 -0.4152
vn 0.5884 0.7066 -0.3931
vn 0.6905 -0.6643 -0.2860
vn 0.6538 0.7066 -0.2708
vn 0.7331 -0.6643 -0.1458
vn 0.6940 0.7066 -0.1380
vn 0.7474 -0.6643 0.0000
vn 0.7076 0.7066 0.0000
vn 0.7331 -0.6643 0.1458
vn 0.6940 0.7066 0.1380
vn 0.6905 -0.6643 0.2860
vn 0.6538 0.7066 0.2708
vn 0.6215 -0.6643 0.4152
vn 0.5884 0.7066 0.3931
vn 0.5285 -0.6643 0.5285
vn 0.5004 0.7066 0.5004
vn 0.4152 -0.6643 0.6215
vn 0.3931 0.7066 0.5884
vn 0.2860 -0.6643 0.6905
vn 0.2708 0.7066 0.6538
vn 0.1458 -0.6643 0.7331
vn 0.1380 0.7066 0.6940
vn 0.0000 -0.6643 0.7474
vn 0.0000 0.7066 0.7076
vn -0.1458 -0.6643 0.7331
vn -0.1380 0.7066 0.6940
vn -0.2860 -0.6643 0.6905
vn -0.2708 0.7066 0.6538
vn -0.4152 -0.6643 0.6215
vn -0.3931 0.7065 0.5884
vn -0.5285 -0.6643 0.5285
vn -0.5004 0.7066 0.5004
vn -0.6215 -0.6643 0.4152
vn -0.5884 0.7066 0.3931
vn -0.6905 -0.6643 0.2860
vn -0.6538 0.7066 0.2708
vn -0.7331 -0.6643 0.1458
vn -0.6940 0.7066 0.1380
vn -0.7474 -0.6643 0.0000
vn -0.6940 0.7066 -0.1380
vn -0.7331 -0.6643 -0.1458
vn -0.6905 -0.6643 -0.2860
vn -0.6538 0.7066 -0.2708
vn -0.6215 -0.6643 -0.4152
vn -0.5884 0.7066 -0.3931
vn -0.5285 -0.6643 -0.5285
vn -0.5004 0.7066 -0.5004
vn -0.4152 -0.6643 -0.6215
vn -0.3931 0.7066 -0.5884
vn -0.2860 -0.6643 -0.6905
vn -0.2708 0.7066 -0.6538
vn -0.1458 -0.6643 -0.7331
vn -0.1380 0.7066 -0.6940
vn -0.7076 0.7066 0.0000
usemtl Material.003
s 1
f 1/1/1 24/2/2 2/3/3
f 2/3/3 24/2/2 3/4/4
f 3/4/4 24/2/2 4/5/5
f 4/5/5 24/2/2 5/6/6
f 5/6/6 24/2/2 6/7/7
f 6/7/7 24/2/2 7/8/8
f 7/8/8 24/2/2 8/9/9
f 8/9/9 24/2/2 9/10/10
f 9/10/10 24/2/2 10/11/11
f 10/11/11 24/2/2 11/12/12
f 11/12/12 24/2/2 12/13/13
f 12/13/13 24/2/2 13/14/14
f 13/14/14 24/2/2 14/15/15
f 14/15/15 24/2/2 15/16/16
f 15/16/16 24/2/2 16/17/17
f 16/17/17 24/2/2 17/18/18
f 17/18/18 24/2/2 18/19/19
f 18/19/19 24/2/2 19/20/20
f 19/20/20 24/2/2 20/21/21
f 20/21/21 24/2/2 21/22/22
f 21/22/22 24/2/2 22/23/23
f 22/23/23 24/2/2 23/24/24
f 23/24/24 24/2/2 25/25/25
f 25/25/25 24/2/2 26/26/26
f 26/26/26 24/2/2 27/27/27
f 27/27/27 24/2/2 28/28/28
f 28/28/28 24/2/2 29/29/29
f 29/29/29 24/2/2 30/30/30
f 30/30/30 24/2/2 31/31/31
f 31/31/31 24/2/2 32/32/32
f 32/32/32 24/2/2 33/33/33
f 33/33/33 24/2/2 1/1/1
f 8/34/9 16/35/17 25/36/25
f 35/37/34 36/38/35 34/39/36
f 37/40/37 38/41/38 36/38/35
f 39/42/39 40/43/40 38/41/38
f 41/44/41 42/45/42 40/43/40
f 43/46/43 44/47/44 42/45/42
f 45/48/45 46/49/46 44/47/44
f 47/50/47 48/51/48 46/49/46
f 49/52/49 50/53/50 48/51/48
f 51/54/51 52/55/52 50/53/50
f 53/56/53 54/57/54 52/55/52
f 55/58/55 56/59/56 54/57/54
f 57/60/57 58/61/58 56/59/56
f 59/62/59 60/63/60 58/61/58
f 61/64/61 62/65/62 60/63/60
f 63/66/63 64/67/64 62/65/62
f 65/68/65 66/69/66 64/67/64
f 67/70/67 68/71/68 66/69/66
f 69/72/69 70/73/70 68/71/68
f 71/74/71 72/75/72 70/73/70
f 73/76/73 74/77/74 72/75/72
f 75/78/75 76/79/76 74/77/74
f 77/80/77 78/81/78 76/79/76
f 79/82/79 80/83/80 78/81/78
f 81/84/81 82/85/82 80/83/80
f 82/85/82 85/86/83 84/87/84
f 85/86/83 86/88/85 84/87/84
f 87/89/86 88/90/87 86/88/85
f 89/91/88 90/92/89 88/90/87
f 91/93/90 92/94/91 90/92/89
f 93/95/92 94/96/93 92/94/91
f 71/97/71 55/98/55 39/99/39
f 95/100/94 96/101/95 94/96/93
f 97/102/96 34/103/36 96/101/95
f 48/104/48 64/105/64 80/106/80
f 98/107/1 121/108/2 99/109/3
f 99/109/3 121/108/2 100/110/4
f 100/110/4 121/108/2 101/111/5
f 101/111/5 121/108/2 102/112/6
f 102/112/6 121/108/2 103/113/7
f 103/113/7 121/108/2 104/114/8
f 104/114/8 121/108/2 105/115/9
f 105/115/9 121/108/2 106/116/10
f 106/116/10 121/108/2 107/117/11
f 107/117/11 121/108/2 108/118/12
f 108/118/12 121/108/2 109/119/13
f 109/119/13 121/108/2 110/120/14
f 110/120/14 121/108/2 111/121/15
f 111/121/15 121/108/2 112/122/16
f 112/122/16 121/108/2 113/123/17
f 113/123/17 121/108/2 114/124/18
f 114/124/18 121/108/2 115/125/19
f 115/125/19 121/108/2 116/126/20
f 116/126/20 121/108/2 117/127/21
f 117/127/21 121/108/2 118/128/22
f 118/128/22 121/108/2 119/129/23
f 119/129/23 121/108/2 120/130/24
f 120/130/24 121/108/2 122/131/25
f 122/131/25 121/108/2 123/132/26
f 123/132/26 121/108/2 124/133/27
f 124/133/27 121/108/2 125/134/28
f 125/134/28 121/108/2 126/135/29
f 126/135/29 121/108/2 127/136/30
f 127/136/30 121/108/2 128/137/31
f 128/137/31 121/108/2 129/138/32
f 129/138/32 121/108/2 130/139/33
f 130/139/33 121/108/2 98/107/1
f 113/140/17 122/141/25 130/142/33
f 131/143/1 154/144/2 132/145/3
f 132/145/3 154/144/2 133/146/4
f 133/146/4 154/144/2 134/147/5
f 134/147/5 154/144/2 135/148/6
f 135/148/6 154/144/2 136/149/7
f 136/149/7 154/144/2 137/150/8
f 137/150/8 154/144/2 138/151/9
f 138/151/9 154/144/2 139/152/10
f 139/152/10 154/144/2 140/153/11
f 140/153/11 154/144/2 141/154/12
f 141/154/12 154/144/2 142/155/13
f 142/155/13 154/144/2 143/156/14
f 143/156/14 154/144/2 144/157/15
f 144/157/15 154/144/2 145/158/16
f 145/158/16 154/144/2 146/159/17
f 146/159/17 154/144/2 147/160/18
f 147/160/18 154/144/2 148/161/19
f 148/161/19 154/144/2 149/162/20
f 149/162/20 154/144/2 150/163/21
f 150/163/21 154/144/2 151/164/22
f 151/164/22 154/144/2 152/165/23
f 152/165/23 154/144/2 153/166/24
f 153/166/24 154/144/2 155/167/25
f 155/167/25 154/144/2 156/168/26
f 156/168/26 154/144/2 157/169/27
f 157/169/27 154/144/2 158/170/28
f 158/170/28 154/144/2 159/171/29
f 159/171/29 154/144/2 160/172/30
f 160/172/30 154/144/2 161/173/31
f 161/173/31 154/144/2 162/174/32
f 162/174/32 154/144/2 163/175/33
f 163/175/33 154/144/2 131/143/1
f 146/176/17 155/177/25 163/178/33
f 33/179/33 1/180/1 2/181/3
f 2/181/3 3/182/4 4/183/5
f 4/183/5 5/184/6 6/185/7
f 6/185/7 7/186/8 4/183/5
f 7/186/8 8/34/9 4/183/5
f 8/34/9 9/187/10 10/188/11
f 10/188/11 11/189/12 8/34/9
f 11/189/12 12/190/13 8/34/9
f 12/190/13 13/191/14 16/35/17
f 13/191/14 14/192/15 16/35/17
f 14/192/15 15/193/16 16/35/17
f 16/35/17 17/194/18 18/195/19
f 18/195/19 19/196/20 20/197/21
f 20/197/21 21/198/22 22/199/23
f 22/199/23 23/200/24 25/36/25
f 25/36/25 26/201/26 27/202/27
f 27/202/27 28/203/28 29/204/29
f 29/204/29 30/205/30 33/179/33
f 30/205/30 31/206/31 33/179/33
f 31/206/31 32/207/32 33/179/33
f 33/179/33 2/181/3 4/183/5
f 16/35/17 18/195/19 25/36/25
f 18/195/19 20/197/21 25/36/25
f 20/197/21 22/199/23 25/36/25
f 25/36/25 27/202/27 33/179/33
f 27/202/27 29/204/29 33/179/33
f 33/179/33 4/183/5 8/34/9
f 8/34/9 12/190/13 16/35/17
f 33/179/33 8/34/9 25/36/25
f 35/37/34 37/40/37 36/38/35
f 37/40/37 39/42/39 38/41/38
f 39/42/39 41/44/41 40/43/40
f 41/44/41 43/46/43 42/45/42
f 43/46/43 45/48/45 44/47/44
f 45/48/45 47/50/47 46/49/46
f 47/50/47 49/52/49 48/51/48
f 49/52/49 51/54/51 50/53/50
f 51/54/51 53/56/53 52/55/52
f 53/56/53 55/58/55 54/57/54
f 55/58/55 57/60/57 56/59/56
f 57/60/57 59/62/59 58/61/58
f 59/62/59 61/64/61 60/63/60
f 61/64/61 63/66/63 62/65/62
f 63/66/63 65/68/65 64/67/64
f 65/68/65 67/70/67 66/69/66
f 67/70/67 69/72/69 68/71/68
f 69/72/69 71/74/71 70/73/70
f 71/74/71 73/76/73 72/75/72
f 73/76/73 75/78/75 74/77/74
f 75/78/75 77/80/77 76/79/76
f 77/80/77 79/82/79 78/81/78
f 79/82/79 81/84/81 80/83/80
f 81/84/81 83/208/97 82/85/82
f 82/85/82 83/208/97 85/86/83
f 85/86/83 87/89/86 86/88/85
f 87/89/86 89/91/88 88/90/87
f 89/91/88 91/93/90 90/92/89
f 91/93/90 93/95/92 92/94/91
f 93/95/92 95/100/94 94/96/93
f 39/99/39 37/209/37 35/210/34
f 35/210/34 97/211/96 39/99/39
f 97/211/96 95/212/94 39/99/39
f 95/212/94 93/213/92 91/214/90
f 91/214/90 89/215/88 87/216/86
f 87/216/86 85/217/83 83/218/97
f 83/218/97 81/219/81 87/216/86
f 81/219/81 79/220/79 87/216/86
f 79/220/79 77/221/77 75/222/75
f 75/222/75 73/223/73 71/97/71
f 71/97/71 69/224/69 67/225/67
f 67/225/67 65/226/65 63/227/63
f 63/227/63 61/228/61 59/229/59
f 59/229/59 57/230/57 55/98/55
f 55/98/55 53/231/53 47/232/47
f 53/231/53 51/233/51 47/232/47
f 51/233/51 49/234/49 47/232/47
f 47/232/47 45/235/45 39/99/39
f 45/235/45 43/236/43 39/99/39
f 43/236/43 41/237/41 39/99/39
f 95/212/94 91/214/90 39/99/39
f 91/214/90 87/216/86 39/99/39
f 79/220/79 75/222/75 87/216/86
f 75/222/75 71/97/71 87/216/86
f 71/97/71 67/225/67 63/227/63
f 63/227/63 59/229/59 71/97/71
f 59/229/59 55/98/55 71/97/71
f 55/98/55 47/232/47 39/99/39
f 39/99/39 87/216/86 71/97/71
f 95/100/94 97/102/96 96/101/95
f 97/102/96 35/238/34 34/103/36
f 96/239/95 34/240/36 36/241/35
f 36/241/35 38/242/38 40/243/40
f 40/243/40 42/244/42 44/245/44
f 44/245/44 46/246/46 40/243/40
f 46/246/46 48/104/48 40/243/40
f 48/104/48 50/247/50 52/248/52
f 52/248/52 54/249/54 48/104/48
f 54/249/54 56/250/56 48/104/48
f 56/250/56 58/251/58 64/105/64
f 58/251/58 60/252/60 64/105/64
f 60/252/60 62/253/62 64/105/64
f 64/105/64 66/254/66 68/255/68
f 68/255/68 70/256/70 72/257/72
f 72/257/72 74/258/74 76/259/76
f 76/259/76 78/260/78 80/106/80
f 80/106/80 82/261/82 84/262/84
f 84/262/84 86/263/85 88/264/87
f 88/264/87 90/265/89 96/239/95
f 90/265/89 92/266/91 96/239/95
f 92/266/91 94/267/93 96/239/95
f 96/239/95 36/241/35 40/243/40
f 64/105/64 68/255/68 80/106/80
f 68/255/68 72/257/72 80/106/80
f 72/257/72 76/259/76 80/106/80
f 80/106/80 84/262/84 96/239/95
f 84/262/84 88/264/87 96/239/95
f 96/239/95 40/243/40 48/104/48
f 48/104/48 56/250/56 64/105/64
f 96/239/95 48/104/48 80/106/80
f 130/142/33 98/268/1 99/269/3
f 99/269/3 100/270/4 101/271/5
f 101/271/5 102/272/6 103/273/7
f 103/273/7 104/274/8 101/271/5
f 104/274/8 105/275/9 101/271/5
f 105/275/9 106/276/10 107/277/11
f 107/277/11 108/278/12 105/275/9
f 108/278/12 109/279/13 105/275/9
f 109/279/13 110/280/14 113/140/17
f 110/280/14 111/281/15 113/140/17
f 111/281/15 112/282/16 113/140/17
f 113/140/17 114/283/18 115/284/19
f 115/284/19 116/285/20 117/286/21
f 117/286/21 118/287/22 122/141/25
f 118/287/22 119/288/23 122/141/25
f 119/288/23 120/289/24 122/141/25
f 122/141/25 123/290/26 124/291/27
f 124/291/27 125/292/28 126/293/29
f 126/293/29 127/294/30 130/142/33
f 127/294/30 128/295/31 130/142/33
f 128/295/31 129/296/32 130/142/33
f 130/142/33 99/269/3 101/271/5
f 113/140/17 115/284/19 117/286/21
f 122/141/25 124/291/27 130/142/33
f 124/291/27 126/293/29 130/142/33
f 130/142/33 101/271/5 105/275/9
f 105/275/9 109/279/13 113/140/17
f 113/140/17 117/286/21 122/141/25
f 130/142/33 105/275/9 113/140/17
f 163/178/33 131/297/1 132/298/3
f 132/298/3 133/299/4 163/178/33
f 133/299/4 134/300/5 163/178/33
f 134/300/5 135/301/6 136/302/7
f 136/302/7 137/303/8 134/300/5
f 137/303/8 138/304/9 134/300/5
f 138/304/9 139/305/10 140/306/11
f 140/306/11 141/307/12 142/308/13
f 142/308/13 143/309/14 144/310/15
f 144/310/15 145/311/16 146/176/17
f 146/176/17 147/312/18 148/313/19
f 148/313/19 149/314/20 150/315/21
f 150/315/21 151/316/22 152/317/23
f 152/317/23 153/318/24 155/177/25
f 155/177/25 156/319/26 157/320/27
f 157/320/27 158/321/28 159/322/29
f 159/322/29 160/323/30 161/324/31
f 161/324/31 162/325/32 159/322/29
f 162/325/32 163/178/33 159/322/29
f 138/304/9 140/306/11 142/308/13
f 142/308/13 144/310/15 138/304/9
f 144/310/15 146/176/17 138/304/9
f 146/176/17 148/313/19 150/315/21
f 150/315/21 152/317/23 155/177/25
f 155/177/25 157/320/27 163/178/33
f 157/320/27 159/322/29 163/178/33
f 163/178/33 134/300/5 138/304/9
f 146/176/17 150/315/21 155/177/25
f 163/178/33 138/304/9 146/176/17
